<svg id="Calque_1" data-name="Calque 1" xmlns="http://www.w3.org/2000/svg" viewBox="0 0 484.98 119.35"><title>logo-inline</title><path d="M16.47,257.46A22.9,22.9,0,0,1,7,252.74v33.4C10.9,291.79,17.31,295,26.51,295c14.66,0,19.3-6.14,19.3-14.85C45.81,268.61,38.19,263.43,16.47,257.46Z" transform="translate(-7.02 -190.74)" style="fill:#0e1111"/><path d="M24.56,190.88c-10.82,0-16.68,5-16.68,13.52,0,9.86,7.1,12.74,28.41,18.78,42,12,53.72,27.92,53.72,52.11,0,14.18-4.93,26.11-14.49,34.8h50.84l-21.61-44.31a39.7,39.7,0,0,0-18.09-75H82" transform="translate(-7.02 -190.74)" style="fill:#0e1111"/><path d="M160.65,239.86l-.11,9.44-3.08,0,.27-21.91,10.46.13c4.49.05,7.47,2.15,7.42,6a5,5,0,0,1-4.06,5.17c1.43.42,3.41,1.54,3.36,5.37v1a21.42,21.42,0,0,0,.2,4.44l-3.17,0a17.52,17.52,0,0,1-.23-4.47v-.73c0-3.23-1.2-4.26-5-4.31Zm0-2.54,6.61.08c3.42,0,5.11-1.14,5.14-3.74,0-2.39-1.64-3.61-4.94-3.65l-6.72-.08Z" transform="translate(-7.02 -190.74)" style="fill:#111"/><path d="M184.39,243l-2.91,6.6-3.23,0,9.69-21.79,3.75,0,9.54,22-3.37,0L195,243.08Zm9.62-2.52c-2.6-6.08-3.83-9-4.31-10.46h0c-.47,1.43-2,5.17-4.28,10.35Z" transform="translate(-7.02 -190.74)" style="fill:#111"/><path d="M205.06,227.92l10.29.13c5.44.06,7.89,2.91,7.84,6.54-.05,4.31-3,6.67-7.89,6.61l-7.29-.09-.11,8.76-3.1,0Zm3,10.59,6.85.08c3,0,5.12-.83,5.15-4,0-2.49-1.62-3.92-5.06-4l-6.85-.08Z" transform="translate(-7.02 -190.74)" style="fill:#111"/><path d="M227.73,228.2l3.1,0-.11,8.85,13.19.16.1-8.85,3.1,0-.27,21.91-3.09,0,.12-10.42-13.18-.16-.13,10.42-3.1,0Z" transform="translate(-7.02 -190.74)" style="fill:#111"/><path d="M256.47,243.82l-2.91,6.6-3.23,0L260,228.59l3.75,0,9.54,22-3.37,0L267.07,244Zm9.62-2.52c-2.6-6.08-3.83-9-4.31-10.45h0c-.47,1.43-2,5.16-4.28,10.35Z" transform="translate(-7.02 -190.74)" style="fill:#111"/><path d="M293.23,240.7l-13.14-.16-.09,7.59,14.5.17-.45,2.61-17.18-.2.27-21.91,16.92.2,0,2.62-13.83-.17-.08,6.48,13.14.16Z" transform="translate(-7.02 -190.74)" style="fill:#111"/><path d="M299.25,229.06l3.08,0-.24,19.27,13.22.16-.5,2.63L299,251Z" transform="translate(-7.02 -190.74)" style="fill:#111"/><path d="M329.4,245c.77,2.57,2.62,4.4,6.94,4.45s6-1.6,6-3.64-1.17-3.49-6.8-4.51c-6.58-1.19-8.13-3.28-8.09-6.26,0-3.86,3.73-6,8.5-5.95,7.13.08,8.76,3.83,9,6.05l-3.14,0c-.43-1.5-1.33-3.48-6-3.54-3.15,0-5.19,1-5.22,3.21,0,1.79.86,2.94,5.82,3.83,7.89,1.44,9.14,3.91,9.1,6.94,0,3.49-2.86,6.44-9.45,6.37-6.12-.08-9.18-2.91-9.85-6.95Z" transform="translate(-7.02 -190.74)" style="fill:#111"/><path d="M354.24,245l-2.91,6.61-3.23,0,9.68-21.8,3.76,0,9.53,22-3.37,0-2.86-6.67Zm9.62-2.52c-2.6-6.08-3.83-9-4.31-10.45h0c-.46,1.43-2,5.16-4.27,10.35Z" transform="translate(-7.02 -190.74)" style="fill:#111"/><path d="M374.64,251.89l.27-21.91,3.7,0c4.85,6.93,11.78,16,13,18.28h.06c-.16-2.85-.08-6.31,0-9.87l.1-8.25,2.9,0-.27,21.91-3.5,0c-3.2-4.41-11.65-16.33-13.19-18.9h-.06c.13,2.83.09,5.93,0,9.81l-.11,8.93Z" transform="translate(-7.02 -190.74)" style="fill:#111"/><path d="M421,246c-1.3,3.75-4.08,6.83-10.33,6.76-7.27-.09-11.16-5.23-11.09-11.51s4.52-11.41,11.53-11.33c6.32.08,9.25,3.52,10.07,7.13L418,237c-.92-2.31-2.65-4.45-7-4.5-5-.06-8.12,3.62-8.18,8.67s2.91,8.94,8,9c4.13,0,5.8-1.7,7-4.21Z" transform="translate(-7.02 -190.74)" style="fill:#111"/><path d="M425.67,230.59l3.1,0-.11,8.86,13.19.16.11-8.86,3.09,0-.26,21.91-3.1,0,.13-10.43-13.19-.16-.12,10.43-3.1,0Z" transform="translate(-7.02 -190.74)" style="fill:#111"/><path d="M467.55,242.81l-13.14-.16-.09,7.59,14.49.17-.44,2.61-17.18-.21.27-21.9,16.92.2,0,2.62-13.83-.17-.08,6.48,13.14.16Z" transform="translate(-7.02 -190.74)" style="fill:#111"/><path d="M471.91,250.81l15.48-16.89-14.56-.18,0-2.58,18.6.23,0,2.39-15.36,16.76,15.92.19-.48,2.57-19.64-.24Z" transform="translate(-7.02 -190.74)" style="fill:#111"/><path d="M157.78,284.57v10.21c0,5.87,3.56,7.27,6.53,7.27,3.88,0,6.6-1.84,6.6-7.32V284.57h.52v10.07c0,5.77-2.85,7.88-7.12,7.88s-7.05-2.53-7.05-7.61V284.57Z" transform="translate(-7.02 -190.74)" style="fill:#111"/><path d="M187.88,302.17l-6.72-8.86h0l-6.92,8.86h-.64l7.27-9.25-6.49-8.35H175l6.14,7.93h0l6.48-7.93h.66l-6.85,8.32,7.1,9.28Z" transform="translate(-7.02 -190.74)" style="fill:#111"/><path d="M190,303.21l6.85-18.89h.54l-6.85,18.89Z" transform="translate(-7.02 -190.74)" style="fill:#111"/><path d="M201.56,284.57v10.21c0,5.87,3.56,7.27,6.54,7.27,3.87,0,6.6-1.84,6.6-7.32V284.57h.52v10.07c0,5.77-2.85,7.88-7.12,7.88s-7-2.53-7-7.61V284.57Z" transform="translate(-7.02 -190.74)" style="fill:#111"/><path d="M220.89,284.57v17.6h-.51v-17.6Z" transform="translate(-7.02 -190.74)" style="fill:#111"/><path d="M232.83,284.57h6.23c5.23,0,9,3.59,9,8.45,0,5.45-3.61,9.15-9,9.15h-6.28Zm.51,17.14H239c5.4,0,8.57-3.86,8.57-8.64s-3.76-8-8.55-8h-5.67Z" transform="translate(-7.02 -190.74)" style="fill:#111"/><path d="M263.74,293h-11v8.72h11.94l-.13.46H252.28v-17.6h12V285H252.79v7.49h11Z" transform="translate(-7.02 -190.74)" style="fill:#111"/><path d="M267.36,297.39c.51,2.67,2.55,4.66,6.48,4.66s5.94-1.89,5.94-4.27-1.08-3.68-6.14-4.69c-4.1-.81-5.92-1.72-5.92-4.49s2.58-4.37,5.8-4.37c5,0,6.09,2.87,6.38,4.49h-.51c-.47-1.87-1.72-4-5.87-4-2.65,0-5.28,1.16-5.28,3.88,0,2.14,1.06,3.19,5.55,4.05,5.47,1.06,6.53,2.68,6.53,5.09,0,3.33-3,4.81-6.46,4.81-3.9,0-6.41-1.7-7-5.13Z" transform="translate(-7.02 -190.74)" style="fill:#111"/><path d="M284.89,284.57v17.6h-.52v-17.6Z" transform="translate(-7.02 -190.74)" style="fill:#111"/><path d="M305.76,302.17h-.47c-.07-.46-.05-3.16-.05-4.24-1,2.75-3.19,4.59-7.48,4.59-5.58,0-8.67-4.15-8.67-9,0-5.38,3.61-9.28,8.84-9.28,4.12,0,6.9,1.81,7.93,5.13h-.54c-1-3.14-3.83-4.67-7.44-4.67-5,0-8.25,3.76-8.25,8.82,0,4.56,3,8.54,8.15,8.54,4.47,0,7.46-2.23,7.46-7.05v-1.2h-7.41v-.46h7.93Z" transform="translate(-7.02 -190.74)" style="fill:#111"/><path d="M310.5,302.17v-17.6h.62c3.53,4.4,12.23,15.17,13.55,16.87h0c-.1-1.16-.08-5.26-.08-8.08v-8.79h.52v17.6h-.54c-3.44-4.29-12.89-16-13.63-17h0c.09,2.3.07,5.15.07,8.2v8.83Z" transform="translate(-7.02 -190.74)" style="fill:#111"/><path d="M342.26,293H331.31v8.72h11.93l-.13.46H330.79v-17.6h12V285H331.31v7.49h10.95Z" transform="translate(-7.02 -190.74)" style="fill:#111"/><path d="M347.07,293.48v8.69h-.51v-17.6h7.24c3,0,5.23,1.52,5.23,4.4,0,2.33-1.2,3.87-3.93,4.29,2.31.44,3.78,1.62,3.78,5v.22a21.1,21.1,0,0,0,.17,3.68h-.54a20.62,20.62,0,0,1-.17-3.68v-.22c0-3-1.1-4.79-5.45-4.79Zm0-.46H353c3.49,0,5.5-1.11,5.5-4,0-2.57-1.92-4-4.94-4h-6.48Z" transform="translate(-7.02 -190.74)" style="fill:#111"/><rect x="133.2" y="75.66" width="61.69" height="1.23" style="fill:#111"/></svg>