<svg id="Calque_1" data-name="Calque 1" xmlns="http://www.w3.org/2000/svg" viewBox="0 0 499.89 499.89"><title>logo-rs</title><path d="M39.64,279.44c-14-3.8-27.89-9.42-39.58-19.75V399.56c16.26,23.69,43.09,37.11,81.65,37.11,61.39,0,80.84-25.73,80.84-62.24C162.55,326.14,130.63,304.45,39.64,279.44Z" transform="translate(-0.06 0)" style="fill:#111"/><path d="M73.53.57C28.22.57,3.65,21.48,3.65,57.19c0,41.34,29.74,53.38,119,78.68,176.1,50.08,225,116.93,225,218.27,0,59.4-20.65,109.37-60.71,145.75h213L409.42,314.31A166.29,166.29,0,0,0,333.65,0c-.34,0-.67,0-1,0V0H314" transform="translate(-0.06 0)" style="fill:#111"/></svg>